<svg xmlns="http://www.w3.org/2000/svg" version="1.1" xmlns:xlink="http://www.w3.org/1999/xlink" xmlns:svgjs="http://svgjs.dev/svgjs" width="1500" height="1500" viewBox="0 0 1500 1500"><rect width="1500" height="1500" fill="#ffffff"></rect><g transform="matrix(0.6666666666666666,0,0,0.6666666666666666,249.61681175355562,324.6780026990554)"><svg viewBox="0 0 290 247" data-background-color="#ffffff" preserveAspectRatio="xMidYMid meet" height="1277" width="1500" xmlns="http://www.w3.org/2000/svg" xmlns:xlink="http://www.w3.org/1999/xlink"><g id="tight-bounds" transform="matrix(1,0,0,1,0.11112459146886522,-0.09999999999999432)"><svg viewBox="0 0 289.77775081706227 247.2" height="247.2" width="289.77775081706227"><g><svg viewBox="0 0 395.52 337.40528292568655" height="247.2" width="289.77775081706227"><g transform="matrix(1,0,0,1,0,202.95881532887134)"><svg viewBox="0 0 395.52 134.4464675968152" height="134.4464675968152" width="395.52"><g id="textblocktransform"><svg viewBox="0 0 395.52 134.4464675968152" height="134.4464675968152" width="395.52" id="textblock"><g><svg viewBox="0 0 395.52 72.66218128938439" height="72.66218128938439" width="395.52"><g transform="matrix(1,0,0,1,0,0)"><svg width="395.52" viewBox="1 -37.5 206.28 37.9" height="72.66218128938439" data-palette-color="#332885"><path d="M18.15 0L8.1 0 8.1-2.75 11.35-2.75 11.35-32 4-32 3.45-27.4 1-27.8 1.6-35 24.4-35 25.05-27.8 22.55-27.4 21.95-32 14.5-32 14.5-2.75 18.15-2.75 18.15 0ZM34.47 0.2Q29.25 0.2 26.02-2.8 22.8-5.8 22.8-11.98 22.8-18.15 26.22-21.68 29.65-25.2 34.85-25.2 40.05-25.2 43.3-22.2 46.55-19.2 46.55-13.03 46.55-6.85 43.12-3.33 39.7 0.2 34.47 0.2ZM34.77-22.3Q31.05-22.3 28.55-19.6 26.05-16.9 26.05-12.28 26.05-7.65 28.42-5.18 30.8-2.7 34.55-2.7 38.3-2.7 40.8-5.38 43.3-8.05 43.3-12.68 43.3-17.3 40.9-19.8 38.5-22.3 34.77-22.3ZM90.2 0L80.09 0 80.09-2.75 83.3-2.75 83.3-29.2 71.9-6.55 68.5-6.55 57.09-29.2 57.09-2.75 61.2-2.75 61.2 0 51.09 0 51.09-2.75 53.95-2.75 53.95-32.25 51.09-32.25 51.09-35 57.34-35 70.2-9.4 83.05-35 89.65-35 89.65-32.25 86.44-32.25 86.44-2.75 90.2-2.75 90.2 0ZM99.74 0.2L99.74 0.2Q93.09 0.2 92.69-5.05L92.69-5.05Q92.64-5.4 92.64-5.75L92.64-5.75Q92.64-9.95 97.69-11.35L97.69-11.35Q100.49-12.05 108.49-12.95L108.49-12.95 108.49-16.8Q108.49-22.25 102.79-22.25L102.79-22.25Q98.69-22.2 94.09-20.35L94.09-20.35 93.24-22.5 93.74-22.7Q97.64-24.4 99.69-24.75 101.74-25.1 102.69-25.13 103.64-25.15 104.52-25.1 105.39-25.05 106.79-24.65 108.19-24.25 109.22-23.53 110.24-22.8 110.99-21.35 111.74-19.9 111.74-17.9L111.74-17.9 111.74-2.5 115.59-2.5 115.59 0 108.99 0 108.49-1.9Q103.99 0.2 99.74 0.2ZM100.64-2.1L100.64-2.1Q104.44-2.1 108.49-3.8L108.49-3.8 108.49-10.95Q100.99-10.7 98.79-9.95L98.79-9.95Q97.09-9.5 96.39-8.33 95.69-7.15 95.69-6.45 95.69-5.75 95.69-5.5L95.69-5.5Q95.84-3.7 97.24-2.9 98.64-2.1 100.64-2.1ZM124.14-16.75L124.14-2.5 128.29-2.5 128.29 0 117.79 0 117.79-2.5 120.89-2.5 120.89-22.5 117.54-22.5 117.54-25 124.14-25 124.14-18.95Q128.09-24.75 131.89-24.85L131.89-24.85Q132.19-24.85 132.49-24.85L132.49-24.85 135.29-24.5 133.99-21.5Q133.04-21.95 131.54-21.95L131.54-21.95Q127.94-21.9 124.14-16.75L124.14-16.75ZM152.29-22.5L150.24-22.5 150.24-25 160.74-25 160.74-22.5 156.04-22.5 147.64-13.3 157.14-2.5 161.89-2.5 161.89 0 155.54 0 144.39-13.3 144.39-2.5 148.14-2.5 148.14 0 138.04 0 138.04-2.5 141.14-2.5 141.14-35 137.79-35 137.79-37.5 144.39-37.5 144.39-13.3 152.29-22.5ZM165.44-11.2L165.44-11.2Q165.44-6.75 167.99-4.73 170.54-2.7 173.94-2.7L173.94-2.7Q176.14-2.7 178.46-3.13 180.79-3.55 181.54-3.9L181.54-3.9 182.19-1.55Q181.04-0.8 178.41-0.3 175.79 0.2 173.61 0.2 171.44 0.2 169.71-0.25 167.99-0.7 166.19-1.85 164.39-3 163.34-5.45 162.29-7.9 162.29-11.45L162.29-11.45Q162.29-18.05 165.69-21.55L165.69-21.55Q169.24-25.2 173.94-25.2 178.64-25.2 181.11-22.6 183.59-20 183.59-15.3L183.59-15.3Q183.59-14.3 183.44-13.15L183.44-13.15 165.59-13.15Q165.44-12.1 165.44-11.2ZM180.59-15.65L180.59-15.65Q180.59-18.75 178.74-20.43 176.89-22.1 174.44-22.1L174.44-22.1Q171.09-22.1 168.89-20.08 166.69-18.05 165.94-15.1L165.94-15.1 180.59-15.1Q180.59-15.4 180.59-15.65ZM197.98-2.45L197.98-2.45 199.93-2.55 200.08-0.55Q200.03-0.55 199.38-0.4L199.38-0.4Q197.88-0.05 196.03-0.05L196.03-0.05Q194.33-0.15 192.93-0.63 191.53-1.1 190.33-2.63 189.13-4.15 189.13-6.55L189.13-6.55 189.13-22.1 186.58-22.1 186.98-24.5 189.18-24.95 189.58-29.75 192.38-30 192.38-25 198.43-25 198.43-22.1 192.38-22.1 192.38-7.4Q192.38-2.45 197.98-2.45ZM203.78-1.45L203.78-1.45Q203.78-2.4 204.26-2.95 204.73-3.5 205.53-3.5L205.53-3.5Q207.28-3.5 207.28-1.45L207.28-1.45Q207.28-0.6 206.78-0.1 206.28 0.4 205.53 0.4L205.53 0.4Q203.78 0.4 203.78-1.45Z" opacity="1" transform="matrix(1,0,0,1,0,0)" fill="#332885" class="wordmark-text-0" data-fill-palette-color="primary" id="text-0"></path></svg></g></svg></g><g transform="matrix(1,0,0,1,0,89.8159783994571)"><svg viewBox="0 0 395.52 44.6304891973581" height="44.6304891973581" width="395.52"><g transform="matrix(1,0,0,1,0,0)"><svg width="395.52" viewBox="1.1 -38 446.65 50.4" height="44.6304891973581" data-palette-color="#332885"><path d="M43.45-33L43.45-33Q43.45-34.55 42.4-35.25L42.4-35.25Q43.4-36.25 44.78-36.25 46.15-36.25 46.83-35.5 47.5-34.75 47.5-33.68 47.5-32.6 47.2-31.55L47.2-31.55 39.3-2.6Q38.45 0.4 35.88 0.4 33.3 0.4 32.6-2.6L32.6-2.6 25.15-30.35 17.75-2.6Q17 0.4 14.3 0.4L14.3 0.4Q12.95 0.4 12.2-0.25 11.45-0.9 11-2.6L11-2.6 3.05-31.7Q2.5-33.75 1.1-34.35L1.1-34.35Q2-36.25 4.05-36.25L4.05-36.25Q5.2-36.25 5.98-35.45 6.75-34.65 7.2-32.6L7.2-32.6 14.5-4 22.3-33.7Q23-36.25 25.48-36.25 27.95-36.25 28.6-33.7L28.6-33.7 36.2-3.95 43.25-31.5Q43.45-32.35 43.45-33ZM55.6-14.65L64.95-15.4Q67-15.55 67-17.78 67-20 65.73-21.48 64.45-22.95 62.15-22.95 59.85-22.95 57.95-20.75 56.05-18.55 55.6-14.65L55.6-14.65ZM55.5-12.5Q55.5-7.6 57.63-5.25 59.75-2.9 63.7-2.9 67.65-2.9 70.25-5.5L70.25-5.5Q71-5.1 71-4.15L71-4.15Q71-2.5 68.6-1.03 66.2 0.45 62.9 0.45L62.9 0.45Q57.75 0.45 54.45-2.8 51.15-6.05 51.15-11.93 51.15-17.8 54.73-21.83 58.3-25.85 62.95-25.85L62.95-25.85Q66.65-25.85 68.98-23.3 71.3-20.75 71.3-17.5L71.3-17.5Q71.3-15.15 70.03-14.03 68.75-12.9 65.9-12.8L65.9-12.8 55.5-12.5ZM112-17.25L112-17.25 112-3.1Q112-1.7 113.3-1.15L113.3-1.15Q112.25 0.45 110.65 0.45L110.65 0.45Q107.9 0.45 107.9-3.05L107.9-3.05 107.9-16.95Q107.9-22.2 103.3-22.2L103.3-22.2Q100.8-22.2 98.55-20.2 96.3-18.2 95.45-14.85L95.45-14.85 95.45-3.1Q95.45-1.65 96.7-1.15L96.7-1.15Q95.65 0.45 94.1 0.45L94.1 0.45Q91.3 0.45 91.3-3.05L91.3-3.05 91.3-34.45Q91.3-35.9 90.05-36.45L90.05-36.45Q90.9-38 92.65-38L92.65-38Q95.45-38 95.45-34.55L95.45-34.55 95.45-19.75Q96.75-22.45 99.15-24.15 101.55-25.85 104.78-25.85 108-25.85 110-23.68 112-21.5 112-17.25ZM123.6-6.4L123.6-6.4Q123.6-2.8 127.53-2.8 131.45-2.8 134-6.25L134-6.25 134-12.2Q128.7-11.9 126.15-10.33 123.6-8.75 123.6-6.4ZM138.15-17.8L138.15-17.8 138.15-4.5Q138.15-1.85 140.6-1.5L140.6-1.5Q139.65 0.45 137.45 0.45L137.45 0.45Q134.3 0.45 134-3.6L134-3.6Q131.1 0.45 126.2 0.45L126.2 0.45Q123.1 0.45 121.1-1.25 119.1-2.95 119.1-5.95L119.1-5.95Q119.1-9.65 122.83-11.93 126.55-14.2 134-14.4L134-14.4 134-17.4Q134-20.5 132.9-21.98 131.8-23.45 129.43-23.45 127.05-23.45 125.85-22.48 124.65-21.5 124.65-20.28 124.65-19.05 125.35-18.3L125.35-18.3Q124.3-17.5 123.03-17.5 121.75-17.5 120.95-18.2 120.15-18.9 120.15-20.2L120.15-20.2Q120.15-22.55 122.85-24.2 125.55-25.85 129.5-25.85 133.45-25.85 135.8-23.73 138.15-21.6 138.15-17.8ZM155.75-2.5L162.75-20.9Q163.2-22.1 163.2-23.15 163.2-24.2 162.5-24.95L162.5-24.95Q163.65-25.85 164.73-25.85 165.8-25.85 166.5-25.15 167.2-24.45 167.2-23.38 167.2-22.3 166.6-20.9L166.6-20.9 159.45-3.1Q158.7-1.15 157.9-0.38 157.1 0.4 155.68 0.4 154.25 0.4 153.4-0.4 152.55-1.2 151.9-3.1L151.9-3.1 145.55-21.65Q144.9-23.4 143.5-23.5L143.5-23.5Q143.55-24.55 144.35-25.2 145.15-25.85 146.2-25.85L146.2-25.85Q148.7-25.85 149.75-22.45L149.75-22.45 155.75-2.5ZM175.2-14.65L184.55-15.4Q186.6-15.55 186.6-17.78 186.6-20 185.33-21.48 184.05-22.95 181.75-22.95 179.45-22.95 177.55-20.75 175.65-18.55 175.2-14.65L175.2-14.65ZM175.1-12.5Q175.1-7.6 177.23-5.25 179.35-2.9 183.3-2.9 187.25-2.9 189.85-5.5L189.85-5.5Q190.6-5.1 190.6-4.15L190.6-4.15Q190.6-2.5 188.2-1.03 185.8 0.45 182.5 0.45L182.5 0.45Q177.35 0.45 174.05-2.8 170.75-6.05 170.75-11.93 170.75-17.8 174.33-21.83 177.9-25.85 182.55-25.85L182.55-25.85Q186.25-25.85 188.58-23.3 190.9-20.75 190.9-17.5L190.9-17.5Q190.9-15.15 189.63-14.03 188.35-12.9 185.5-12.8L185.5-12.8 175.1-12.5ZM213.25-14.65L222.6-15.4Q224.65-15.55 224.65-17.78 224.65-20 223.38-21.48 222.1-22.95 219.8-22.95 217.5-22.95 215.6-20.75 213.7-18.55 213.25-14.65L213.25-14.65ZM213.15-12.5Q213.15-7.6 215.28-5.25 217.4-2.9 221.35-2.9 225.3-2.9 227.9-5.5L227.9-5.5Q228.65-5.1 228.65-4.15L228.65-4.15Q228.65-2.5 226.25-1.03 223.85 0.45 220.55 0.45L220.55 0.45Q215.4 0.45 212.1-2.8 208.8-6.05 208.8-11.93 208.8-17.8 212.38-21.83 215.95-25.85 220.6-25.85L220.6-25.85Q224.3-25.85 226.63-23.3 228.95-20.75 228.95-17.5L228.95-17.5Q228.95-15.15 227.68-14.03 226.4-12.9 223.55-12.8L223.55-12.8 213.15-12.5ZM243.75-2.5L250.75-20.9Q251.2-22.1 251.2-23.15 251.2-24.2 250.5-24.95L250.5-24.95Q251.65-25.85 252.73-25.85 253.8-25.85 254.5-25.15 255.2-24.45 255.2-23.38 255.2-22.3 254.6-20.9L254.6-20.9 247.45-3.1Q246.7-1.15 245.9-0.38 245.1 0.4 243.68 0.4 242.25 0.4 241.4-0.4 240.55-1.2 239.9-3.1L239.9-3.1 233.55-21.65Q232.9-23.4 231.5-23.5L231.5-23.5Q231.55-24.55 232.35-25.2 233.15-25.85 234.2-25.85L234.2-25.85Q236.7-25.85 237.75-22.45L237.75-22.45 243.75-2.5ZM263.2-14.65L272.55-15.4Q274.6-15.55 274.6-17.78 274.6-20 273.33-21.48 272.05-22.95 269.75-22.95 267.45-22.95 265.55-20.75 263.65-18.55 263.2-14.65L263.2-14.65ZM263.1-12.5Q263.1-7.6 265.23-5.25 267.35-2.9 271.3-2.9 275.25-2.9 277.85-5.5L277.85-5.5Q278.6-5.1 278.6-4.15L278.6-4.15Q278.6-2.5 276.2-1.03 273.8 0.45 270.5 0.45L270.5 0.45Q265.35 0.45 262.05-2.8 258.75-6.05 258.75-11.93 258.75-17.8 262.33-21.83 265.9-25.85 270.55-25.85L270.55-25.85Q274.25-25.85 276.58-23.3 278.9-20.75 278.9-17.5L278.9-17.5Q278.9-15.15 277.63-14.03 276.35-12.9 273.5-12.8L273.5-12.8 263.1-12.5ZM289.45-22.35L289.45-22.35 289.45-20.5Q291.55-25.85 296.4-25.85L296.4-25.85Q298.75-25.85 300.05-24.65 301.35-23.45 301.35-21.88 301.35-20.3 300.55-19.48 299.75-18.65 298.9-18.65 298.05-18.65 297.35-18.85L297.35-18.85Q297.45-19.35 297.45-20.15L297.45-20.15Q297.45-22.65 294.95-22.65L294.95-22.65Q293.3-22.65 291.7-21 290.1-19.35 289.45-15.95L289.45-15.95 289.45-3.1Q289.45-1.65 290.7-1.15L290.7-1.15Q289.65 0.45 288.1 0.45L288.1 0.45Q285.3 0.45 285.3-3.05L285.3-3.05 285.3-22.25Q285.3-23.7 284.05-24.25L284.05-24.25Q285-25.85 286.65-25.85L286.65-25.85Q289.45-25.85 289.45-22.35ZM316.1-2.05L323.15-21.5Q323.5-22.45 323.5-23.4 323.5-24.35 322.8-25.1L322.8-25.1Q323.9-25.85 325.25-25.85 326.6-25.85 327.45-24.5L327.45-24.5Q327.85-23.8 327.85-22.93 327.85-22.05 327.4-20.95L327.4-20.95 317 6.15Q314.55 12.4 310.3 12.4L310.3 12.4Q308.7 12.4 307.8 11.6 306.9 10.8 306.9 9.58 306.9 8.35 307.7 7.6L307.7 7.6Q308.6 8.55 309.9 8.55 311.2 8.55 311.98 7.85 312.75 7.15 313.4 5.35L313.4 5.35 315.2 0.45Q315.15 0.45 315.05 0.45L315.05 0.45Q314.05 0.45 313.2-0.23 312.35-0.9 311.95-2.15L311.95-2.15 305.05-22.15Q304.55-24 303.5-24.5L303.5-24.5Q304.35-25.85 306.15-25.85L306.15-25.85Q308.3-25.85 309.25-22.6L309.25-22.6 316.1-2.05ZM338-22.2L337.3-22.2 337.3-6.35Q337.3-4.5 338.03-3.7 338.75-2.9 340.4-2.9L340.4-2.9Q343.5-2.9 346.25-5.55L346.25-5.55Q347.1-5.1 347.1-4.1L347.1-4.1Q347.1-2.4 344.9-0.98 342.7 0.45 339.5 0.45L339.5 0.45Q333.1 0.45 333.1-6.2L333.1-6.2 333.1-22.2Q329.05-22.35 329.05-24.15L329.05-24.15Q329.05-25.1 329.65-25.6L329.65-25.6Q331.4-25.35 332.35-25.35L332.35-25.35 333.1-25.35 333.1-29.4Q333.1-30.8 331.85-31.4L331.85-31.4Q332.85-32.95 334.45-32.95L334.45-32.95Q337.3-32.95 337.3-29.45L337.3-29.45 337.3-25.35 345.7-25.35Q345.9-25 345.9-24.5L345.9-24.5Q345.9-22.2 338-22.2L338-22.2ZM373.7-17.25L373.7-17.25 373.7-3.1Q373.7-1.7 375-1.15L375-1.15Q373.95 0.45 372.35 0.45L372.35 0.45Q369.6 0.45 369.6-3.05L369.6-3.05 369.6-16.95Q369.6-22.2 365-22.2L365-22.2Q362.5-22.2 360.25-20.2 358-18.2 357.15-14.85L357.15-14.85 357.15-3.1Q357.15-1.65 358.4-1.15L358.4-1.15Q357.35 0.45 355.8 0.45L355.8 0.45Q353 0.45 353-3.05L353-3.05 353-34.45Q353-35.9 351.75-36.45L351.75-36.45Q352.6-38 354.35-38L354.35-38Q357.15-38 357.15-34.55L357.15-34.55 357.15-19.75Q358.45-22.45 360.85-24.15 363.25-25.85 366.48-25.85 369.7-25.85 371.7-23.68 373.7-21.5 373.7-17.25ZM384.93-36.5Q386.2-36.5 387.03-35.77 387.85-35.05 387.85-33.77 387.85-32.5 386.78-31.48 385.7-30.45 384.35-30.45 383-30.45 382.15-31.25 381.3-32.05 381.3-33.35 381.3-34.65 382.48-35.58 383.65-36.5 384.93-36.5ZM386.85-22.35L386.85-22.35 386.85-3.1Q386.85-1.65 388.1-1.15L388.1-1.15Q387.05 0.45 385.5 0.45L385.5 0.45Q382.7 0.45 382.7-3.05L382.7-3.05 382.7-22.25Q382.7-23.7 381.45-24.25L381.45-24.25Q382.4-25.85 384.05-25.85L384.05-25.85Q386.85-25.85 386.85-22.35ZM416.65-17.25L416.65-17.25 416.65-3.1Q416.65-1.7 417.95-1.15L417.95-1.15Q416.9 0.45 415.3 0.45L415.3 0.45Q412.55 0.45 412.55-3.05L412.55-3.05 412.55-16.95Q412.55-22.2 407.95-22.2L407.95-22.2Q405.45-22.2 403.2-20.2 400.95-18.2 400.1-14.85L400.1-14.85 400.1-3.1Q400.1-1.65 401.35-1.15L401.35-1.15Q400.3 0.45 398.75 0.45L398.75 0.45Q395.95 0.45 395.95-3.05L395.95-3.05 395.95-22.25Q395.95-23.7 394.7-24.25L394.7-24.25Q395.65-25.85 397.3-25.85L397.3-25.85Q400.1-25.85 400.1-22.35L400.1-22.35 400.1-19.75Q401.4-22.45 403.8-24.15 406.2-25.85 409.43-25.85 412.65-25.85 414.65-23.68 416.65-21.5 416.65-17.25ZM430.57-10.33Q432.25-8.3 434.6-8.3 436.95-8.3 438.4-10.23 439.85-12.15 439.85-15.1L439.85-15.1Q439.85-19.1 438-21.28 436.15-23.45 433.82-23.45 431.5-23.45 430.05-21.55 428.6-19.65 428.6-16.95L428.6-16.95Q428.6-16.45 428.65-15.9L428.65-15.9Q428.9-12.35 430.57-10.33ZM439.2 1.6L439.2 1.6 432.8 1.6Q429.25 1.6 427.05 0.38 424.85-0.85 424.85-3.68 424.85-6.5 428.25-7.9L428.25-7.9Q424.45-10.7 424.45-15.55 424.45-20.4 427.4-23.13 430.35-25.85 434.25-25.85L434.25-25.85Q436.95-25.85 439.2-24.5L439.2-24.5Q439.5-26.9 441.03-28.4 442.55-29.9 444.23-29.9 445.9-29.9 446.82-29.1 447.75-28.3 447.75-26.98 447.75-25.65 446.7-25.05L446.7-25.05Q445.6-25.9 444.35-25.9 443.1-25.9 442.23-25.13 441.35-24.35 441.1-23.1L441.1-23.1Q444.05-20.25 444.05-15.8 444.05-11.35 441.1-8.65 438.15-5.95 434.25-5.95L434.25-5.95Q432.3-5.95 430.7-6.6L430.7-6.6Q428.5-6.05 428.5-4.45L428.5-4.45Q428.5-3.25 429.63-2.75 430.75-2.25 433.25-2.25L433.25-2.25 439-2.25Q442.65-2.25 444.57-0.65 446.5 0.95 446.5 3.75L446.5 3.75Q446.5 7.45 442.85 9.9 439.2 12.35 434 12.35 428.8 12.35 425.8 10.4 422.8 8.45 422.75 5.7L422.75 5.7Q422.75 4.25 423.57 3.35 424.4 2.45 425.65 2.2L425.65 2.2Q425.95 8.85 434.75 8.85L434.75 8.85Q438.75 8.85 440.98 7.58 443.2 6.3 443.2 4.2L443.2 4.2Q443.2 1.6 439.2 1.6Z" opacity="1" transform="matrix(1,0,0,1,0,0)" fill="#332885" class="slogan-text-1" data-fill-palette-color="secondary" id="text-1"></path></svg></g></svg></g></svg></g></svg></g><g transform="matrix(1,0,0,1,104.85749089060067,0)"><svg viewBox="0 0 185.80501821879864 185.80501821879864" height="185.80501821879864" width="185.80501821879864"><g><svg></svg></g><g id="icon-0"><svg viewBox="0 0 185.80501821879864 185.80501821879864" height="185.80501821879864" width="185.80501821879864"><g><path transform="scale(1.85805,1.85805)" d="M30 100c-16.569 0-30-13.431-30-30v-40c0-16.569 13.431-30 30-30h40c16.569 0 30 13.431 30 30v40c0 16.569-13.431 30-30 30z" fill="#332885" fill-rule="nonzero" stroke="none" stroke-width="1" stroke-linecap="butt" stroke-linejoin="miter" stroke-miterlimit="10" stroke-dasharray="" stroke-dashoffset="0" font-family="none" font-weight="none" font-size="none" text-anchor="none" style="mix-blend-mode: normal" data-fill-palette-color="accent"></path></g><g transform="matrix(1,0,0,1,37.16100364375973,37.24052076995893)"><svg viewBox="0 0 111.48301093127918 111.32397667888078" height="111.32397667888078" width="111.48301093127918"><g><svg xmlns="http://www.w3.org/2000/svg" xmlns:xlink="http://www.w3.org/1999/xlink" version="1.1" x="0" y="0" viewBox="1 1 70.1 70" enable-background="new 0 0 72 72" xml:space="preserve" height="111.32397667888078" width="111.48301093127918" class="icon-cg-0" data-fill-palette-color="quaternary" id="cg-0"><path fill="#ffffff" d="M67.4 66.2V1.5c0-0.3-0.2-0.5-0.5-0.5H5.1C4.8 1 4.6 1.2 4.6 1.5v64.8c0 0.3-0.2 0.5-0.5 0.5H1.5c-0.3 0-0.5 0.2-0.5 0.5v3.4C1 70.8 1.2 71 1.5 71h69.1c0.3 0 0.5-0.2 0.5-0.5v-3.4c0-0.3-0.2-0.5-0.5-0.5h-2.7C67.6 66.7 67.4 66.5 67.4 66.2zM11.4 10h18.1c0.3 0 0.5 0.2 0.5 0.5v13.9c0 0.3-0.2 0.5-0.5 0.5H11.4c-0.3 0-0.5-0.2-0.5-0.5V10.4C11 10.2 11.2 10 11.4 10zM57.5 65.1h-43c-0.3 0-0.5-0.2-0.5-0.5V39.4c0-0.3 0.2-0.5 0.5-0.5H34c0.3 0 0.5 0.2 0.5 0.5v21.2c0 0.3 0.2 0.5 0.5 0.5h2.1c0.3 0 0.5-0.2 0.5-0.5V39.4c0-0.3 0.2-0.5 0.5-0.5h19.5c0.3 0 0.5 0.2 0.5 0.5v25.3C57.9 64.9 57.7 65.1 57.5 65.1zM60.6 24.8H42.4c-0.3 0-0.5-0.2-0.5-0.5V10.4c0-0.3 0.2-0.5 0.5-0.5h18.1c0.3 0 0.5 0.2 0.5 0.5v13.9C61 24.6 60.8 24.8 60.6 24.8z" data-fill-palette-color="quaternary"></path></svg></g></svg></g></svg></g></svg></g><g></g></svg></g><defs></defs></svg><rect width="289.77775081706227" height="247.2" fill="none" stroke="none" visibility="hidden"></rect></g></svg></g></svg>